<svg xmlns="http://www.w3.org/2000/svg" viewBox="0 0 24 24" fill="white" width="64px" height="64px">
  <path d="M15,10l-1.42,1.42l-2.02-2.02l-1.71,1.71l2.02,2.02L10.45,14.55l-2.02-2.02l-1.71,1.71l2.02,2.02L7.33,17.68 C7.02,17.98,6.86,18.14,6.86,18.14c-1.42,0.92-3.15,0.76-4.52-0.2L12.55,8.12C13.25,8.81,14.07,9.55,15,10z"/>
  <path d="M14.5,14.5l-4.14-4.14l4.24-4.24l3.18,3.18L14.5,14.5z"/>
  <path d="M22.07,17.15c-1.3,1.3-3.41,1.3-4.71,0l-1.63-1.63l-1.09-1.09L9.7,9.49l0.9-2.03c0.12-0.28,0.22-0.56,0.28-0.85 l0.03-0.12c0.23-1.12-0.12-2.29-0.96-3.14l-1.45-1.45l-4.24,4.24l4.24,4.24l1.32-1.32c0.26-0.26,0.68-0.26,0.94,0l6.72,6.72 C18.73,17.03,20.76,18.45,22.07,17.15z"/>
</svg>
