<svg xmlns="http://www.w3.org/2000/svg" viewBox="0 0 24 24" fill="white" width="64px" height="64px">
  <path d="M13,2.05v3.02c3.55,0.22,6.46,2.94,6.92,6.43h2.95C22.37,6.27,18.23,2.37,13,2.05z"/>
  <path d="M12,13.5c-0.83,0-1.5,0.67-1.5,1.5s0.67,1.5,1.5,1.5s1.5-0.67,1.5-1.5S12.83,13.5,12,13.5z"/>
  <path d="M12,5.5c-3.15,0-5.91,1.7-7.34,4.21l2.58,1.54C8.11,9.66,9.92,8.5,12,8.5c2.35,0,4.41,1.44,5.4,3.5l2.71-1.3C18.82,7.57,15.63,5.5,12,5.5z"/>
  <path d="M6,13c0-0.74,0.11-1.45,0.31-2.13L3.48,9.75C3.17,10.78,3,11.87,3,13c0,4.97,4.03,9,9,9c0.75,0,1.47-0.09,2.17-0.24l-0.59-2.94C13.08,18.94,12.55,19,12,19C8.69,19,6,16.31,6,13z"/>
  <path d="M14.54,16.03l2.87,0.92c0.97-1.31,1.59-2.92,1.59-4.7c0-0.61-0.08-1.2-0.21-1.78l-2.93,0.58C15.96,11.51,16,12,16,12.5C16,13.9,15.42,15.15,14.54,16.03z"/>
</svg>
